HIERARCHY
ROOT Hips
{
 OFFSET 0.000000 0.000000 0.000000
 CHANNELS 6 Xposition Yposition Zposition Yrotation Xrotation Zrotation
 JOINT Chest
 {
  OFFSET 0.000000 9.585900 0.002600
  CHANNELS 3 Yrotation Xrotation Zrotation
  JOINT Chest2
  {
   OFFSET 0.000000 9.601200 -0.005300
   CHANNELS 3 Yrotation Xrotation Zrotation
   JOINT Chest3
   {
    OFFSET 0.000000 9.561800 0.000000
    CHANNELS 3 Yrotation Xrotation Zrotation
    JOINT Chest4
    {
     OFFSET 0.000000 9.552100 0.000000
     CHANNELS 3 Yrotation Xrotation Zrotation
     JOINT Neck
     {
      OFFSET 0.000000 14.453000 0.000000
      CHANNELS 3 Yrotation Xrotation Zrotation
      JOINT Head
      {
       OFFSET 0.000000 8.936500 -0.011300
       CHANNELS 3 Yrotation Xrotation Zrotation
       End Site
       {
        OFFSET 0.000000 17.073600 -0.006000
       }
      }
     }
     JOINT RightCollar
     {
      OFFSET -2.921100 9.558500 0.000000
      CHANNELS 3 Yrotation Xrotation Zrotation
      JOINT RightShoulder
      {
       OFFSET -13.519700 0.000000 0.000000
       CHANNELS 3 Yrotation Xrotation Zrotation
       JOINT RightElbow
       {
        OFFSET 0.000000 -29.696600 0.000000
        CHANNELS 3 Yrotation Xrotation Zrotation
        JOINT RightWrist
        {
         OFFSET 0.000000 -24.004700 0.000000
         CHANNELS 3 Yrotation Xrotation Zrotation
         End Site
         {
          OFFSET 0.000000 -17.728500 0.000000
         }
        }
       }
      }
     }
     JOINT LeftCollar
     {
      OFFSET 2.921100 9.558500 0.000000
      CHANNELS 3 Yrotation Xrotation Zrotation
      JOINT LeftShoulder
      {
       OFFSET 13.519700 0.000000 0.000000
       CHANNELS 3 Yrotation Xrotation Zrotation
       JOINT LeftElbow
       {
        OFFSET 0.000000 -29.696600 0.000000
        CHANNELS 3 Yrotation Xrotation Zrotation
        JOINT LeftWrist
        {
         OFFSET 0.000000 -24.004700 0.000000
         CHANNELS 3 Yrotation Xrotation Zrotation
         End Site
         {
          OFFSET 0.000000 -17.728500 0.000000
         }
        }
       }
      }
     }
    }
   }
  }
 }
 JOINT RightHip
 {
  OFFSET -7.771700 -0.012900 -0.001300
  CHANNELS 3 Yrotation Xrotation Zrotation
  JOINT RightKnee
  {
   OFFSET 0.000000 -40.869800 0.001200
   CHANNELS 3 Yrotation Xrotation Zrotation
   JOINT RightAnkle
   {
    OFFSET 0.000000 -39.717900 0.002100
    CHANNELS 3 Yrotation Xrotation Zrotation
    JOINT RightToe
    {
     OFFSET 0.000000 -4.965400 11.033500
     CHANNELS 3 Yrotation Xrotation Zrotation
     End Site
     {
      OFFSET 0.000000 -1.423100 5.872300
     }
    }
   }
  }
 }
 JOINT LeftHip
 {
  OFFSET 7.771700 -0.012900 -0.001300
  CHANNELS 3 Yrotation Xrotation Zrotation
  JOINT LeftKnee
  {
   OFFSET 0.000000 -40.869800 0.001200
   CHANNELS 3 Yrotation Xrotation Zrotation
   JOINT LeftAnkle
   {
    OFFSET 0.000000 -39.717900 0.002100
    CHANNELS 3 Yrotation Xrotation Zrotation
    JOINT LeftToe
    {
     OFFSET 0.000000 -4.965400 11.033500
     CHANNELS 3 Yrotation Xrotation Zrotation
     End Site
     {
      OFFSET 0.000000 -1.423100 5.872300
     }
    }
   }
  }
 }
}
MOTION
Frames: 8
Frame Time: 0.008333
0.000000 85.388000 0.000000 0.000000 -5.767877 0.000000 0.000000 11.653817 0.000000 0.000000 -5.885947 0.000000 0.000000 -0.000000 0.000000 0.000000 -0.000000 0.000000 0.000000 12.528835 0.000000 0.000000 0.711642 0.000000 0.000000 -0.000000 0.000000 0.000000 0.000000 -90.000000 0.000000 -2.309062 0.000000 0.000000 2.309062 0.000000 0.000000 -0.000000 0.000000 0.000000 -0.000000 90.000000 0.000000 -2.309062 0.000000 0.000000 2.309062 0.000000 0.000000 8.520406 0.000000 0.000000 1.905762 0.000000 -0.000000 -4.658285 0.000000 0.000000 -0.000000 0.000000 0.000000 8.520406 0.000000 0.000000 1.905762 0.000000 -0.000000 -4.658285 0.000000 0.000000 -0.000000 0.000000
-14.988195 57.570828 55.571995 179.894985 -37.682427 -2.734759 1.962014 23.606654 4.421791 0.163019 3.605022 0.383172 0.291498 5.823011 0.602834 1.265256 19.953242 2.317864 -1.013030 23.752305 -1.150518 -1.531273 8.310009 -1.812853 4.700999 -5.298090 -0.958609 25.499030 -32.102446 -27.356218 -153.923000 -69.186248 -165.556741 20.835369 -29.942213 -58.949801 -10.828305 -8.692217 -2.787827 -9.316452 -27.501185 4.943953 174.476472 -65.621886 159.272865 -4.793812 -8.780853 35.436313 8.182269 -33.832474 -7.378402 -1.671732 67.867544 0.102838 5.625824 8.865580 7.710112 -0.094049 0.147613 -0.015150 -15.332055 -41.016052 4.368579 26.255670 64.605111 20.846690 -10.361544 36.618867 2.396788 0.748209 -19.482416 -7.407895
-14.995415 57.567837 55.579049 179.908328 -37.704554 -2.723800 1.928654 23.605424 4.408731 0.167836 3.621129 0.377351 0.281964 5.823604 0.613083 1.253184 19.966272 2.320490 -1.178597 23.720511 -1.189469 -1.818750 8.249926 -1.840905 4.702711 -5.293286 -0.960773 25.494691 -32.108161 -27.356134 -153.918373 -69.184954 -165.549000 20.851444 -29.923506 -58.967779 -10.818232 -8.696167 -2.802575 -9.316941 -27.501058 4.947875 174.492103 -65.625593 159.250935 -4.788412 -8.788023 35.438727 8.196991 -33.810068 -7.396993 -1.691642 67.866775 0.067352 5.625261 8.866262 7.732963 -0.095047 0.148785 -0.018965 -15.342121 -40.996037 4.341170 26.231178 64.583206 20.821273 -10.370946 36.652471 2.367747 0.754786 -19.496581 -7.403901
-15.000676 57.566202 55.585586 179.901251 -37.743568 -2.716681 1.916386 23.621733 4.409514 0.166378 3.627238 0.378944 0.279701 5.832904 0.615477 1.243616 19.977914 2.324689 -1.331453 23.685855 -1.225651 -2.084023 8.184670 -1.867089 4.696650 -5.286142 -0.956227 25.499732 -32.110422 -27.355566 -153.926578 -69.183578 -165.510030 20.858437 -29.911948 -58.976517 -10.825785 -8.691521 -2.797726 -9.293818 -27.510481 4.936223 174.493737 -65.629277 159.240497 -4.775231 -8.796424 35.432486 8.247625 -33.768657 -7.399772 -1.754661 67.859555 0.004715 5.619135 8.870218 7.762407 -0.092015 0.149337 -0.021189 -15.335309 -40.957205 4.321771 26.229930 64.570396 20.819964 -10.352751 36.658833 2.375922 0.743771 -19.497132 -7.413278
-15.004135 57.565270 55.592364 179.884379 -37.789824 -2.717782 1.899350 23.624615 4.422599 0.163422 3.638105 0.382186 0.293305 5.856862 0.609075 1.235770 19.991530 2.329248 -1.472413 23.648910 -1.259090 -2.328668 8.115211 -1.891349 4.693174 -5.279618 -0.957189 25.462908 -32.111366 -27.320289 -153.960018 -69.173605 -165.450527 20.846085 -29.911657 -58.952747 -10.830652 -8.683441 -2.795416 -9.334391 -27.493718 4.976383 174.491085 -65.608770 159.289096 -4.758886 -8.806470 35.416614 8.267924 -33.718451 -7.375314 -1.770033 67.842273 -0.026420 5.624093 8.860331 7.785160 -0.096901 0.163725 -0.019943 -15.322265 -40.909630 4.317567 26.231266 64.564180 20.822825 -10.345578 36.656253 2.400003 0.743795 -19.491245 -7.437896
-15.008591 57.563471 55.600966 179.876604 -37.826689 -2.720567 1.891067 23.640707 4.429711 0.162157 3.643575 0.383570 0.273127 5.857524 0.622728 1.242139 20.011215 2.320141 -1.602071 23.611732 -1.289307 -2.553835 8.045508 -1.912522 4.690277 -5.270988 -0.954298 25.459684 -32.106687 -27.313463 -153.967255 -69.174313 -165.441523 20.848220 -29.906335 -58.950768 -10.849465 -8.664466 -2.786174 -9.324902 -27.506995 4.982883 174.493209 -65.599079 159.312065 -4.742078 -8.810418 35.394727 8.281841 -33.681309 -7.354706 -1.768768 67.828083 -0.045031 5.612673 8.865618 7.810720 -0.094771 0.164389 -0.021940 -15.313048 -40.872014 4.308139 26.213947 64.550505 20.817758 -10.358340 36.671495 2.386048 0.752445 -19.494979 -7.444567
-15.015375 57.560816 55.610919 179.870452 -37.855138 -2.711207 1.875508 23.650562 4.420670 0.160782 3.649150 0.384872 0.280461 5.868186 0.621076 1.226501 20.020857 2.329166 -1.720921 23.576042 -1.316428 -2.760332 7.978752 -1.930629 4.702074 -5.268603 -0.963151 25.422638 -32.101476 -27.281421 -153.960992 -69.176251 -165.481605 20.844371 -29.922089 -58.907193 -10.838576 -8.664535 -2.796807 -9.354333 -27.498588 5.006197 174.469973 -65.600321 159.336048 -4.749166 -8.814359 35.400516 8.304170 -33.653082 -7.354483 -1.742107 67.817169 -0.039317 5.595015 8.870195 7.835649 -0.086562 0.164229 -0.023115 -15.293655 -40.844949 4.273542 26.203993 64.526748 20.825989 -10.361327 36.693578 2.379974 0.755412 -19.502096 -7.456743
-15.020211 57.555800 55.624061 179.874638 -37.860180 -2.719776 1.861053 23.642332 4.423664 0.154078 3.649153 0.386936 0.288011 5.880106 0.620312 1.210816 20.031150 2.337374 -1.829636 23.543366 -1.341060 -2.949299 7.917666 -1.946801 4.714145 -5.267902 -0.971546 25.397457 -32.095999 -27.257024 -153.986904 -69.165666 -165.440299 20.878706 -29.877693 -58.968636 -10.837316 -8.652741 -2.794725 -9.372686 -27.504290 5.020474 174.458777 -65.603786 159.352713 -4.762241 -8.823733 35.415449 8.312954 -33.645185 -7.349484 -1.736025 67.799206 -0.042347 5.592454 8.861475 7.844617 -0.087673 0.179483 -0.014849 -15.303882 -40.848124 4.244840 26.232194 64.499204 20.892190 -10.358936 36.732775 2.363417 0.741973 -19.524581 -7.469153
